DBRep_DrawableShape

CASCADE Topology V1, (c) Matra-Datavision
Locations 1
1
              1               0               0               0 
              0               1               0               0 
              0               0               1               0 
Curve2ds 6
1 0 6 1 0 
2 0 0 1 0 -0 1 2
1 6.2831853071795862 -0 0 1 
1 0 -0 0 1 
1 0 0 1 0 
2 0 0 1 0 -0 1 2
Curves 3
2 0 0 6 0 0 1 1 0 -0 -0 1 0 2
1 2 -4.8985871965894128e-16 0 0 0 1 
2 0 0 0 0 0 1 1 0 -0 -0 1 0 2
Polygon3D 0
PolygonOnTriangulations 6
57 1 3 4 5 6 7 8 9 10 11 12 13 14 15 16 17 18 19 20 21 22 23 24 25 26 27 28 29 30 31 32 33 34 35 36 37 38 39 40 41 42 43 44 45 46 47 48 49 50 51 52 53 54 55 56 57 2 
p 0.0244318960038986 1 0 0.112199737628207 0.224399475256414 0.336599212884621 0.448798950512828 0.560998688141034 0.673198425769241 0.785398163397448 0.897597901025655 1.00979763865386 1.12199737628207 1.23419711391028 1.34639685153848 1.45859658916669 1.5707963267949 1.6829960644231 1.79519580205131 1.90739553967952 2.01959527730772 2.13179501493593 2.24399475256414 2.35619449019234 2.46839422782055 2.58059396544876 2.69279370307697 2.80499344070517 2.91719317833338 3.02939291596159 3.14159265358979 3.253792391218 3.36599212884621 3.47819186647441 3.59039160410262 3.70259134173083 3.81479107935903 3.92699081698724 4.03919055461545 4.15139029224366 4.26359002987186 4.37578976750007 4.48798950512828 4.60018924275648 4.71238898038469 4.8245887180129 4.9367884556411 5.04898819326931 5.16118793089752 5.27338766852572 5.38558740615393 5.49778714378214 5.60998688141034 5.72218661903855 5.83438635666676 5.94658609429497 6.05878583192317 6.17098556955138 6.28318530717959 
57 1 2 3 4 5 6 7 8 9 10 11 12 13 14 15 16 17 18 19 20 21 22 23 24 25 26 27 28 29 30 31 32 33 34 35 36 37 38 39 40 41 42 43 44 45 46 47 48 49 50 51 52 53 54 55 56 1 
p 0.0244318960038986 1 0 0.112199737628207 0.224399475256414 0.336599212884621 0.448798950512828 0.560998688141034 0.673198425769241 0.785398163397448 0.897597901025655 1.00979763865386 1.12199737628207 1.23419711391028 1.34639685153848 1.45859658916669 1.5707963267949 1.6829960644231 1.79519580205131 1.90739553967952 2.01959527730772 2.13179501493593 2.24399475256414 2.35619449019234 2.46839422782055 2.58059396544876 2.69279370307697 2.80499344070517 2.91719317833338 3.02939291596159 3.14159265358979 3.253792391218 3.36599212884621 3.47819186647441 3.59039160410262 3.70259134173083 3.81479107935903 3.92699081698724 4.03919055461545 4.15139029224366 4.26359002987186 4.37578976750007 4.48798950512828 4.60018924275648 4.71238898038469 4.8245887180129 4.9367884556411 5.04898819326931 5.16118793089752 5.27338766852572 5.38558740615393 5.49778714378214 5.60998688141034 5.72218661903855 5.83438635666676 5.94658609429497 6.05878583192317 6.17098556955138 6.28318530717959 
2 58 2 
p 0.0244318960038986 1 0 6 
2 59 1 
p 0.0244318960038986 1 0 6 
57 59 60 61 62 63 64 65 66 67 68 69 70 71 72 73 74 75 76 77 78 79 80 81 82 83 84 85 86 87 88 89 90 91 92 93 94 95 96 97 98 99 100 101 102 103 104 105 106 107 108 109 110 111 112 113 114 58 
p 0.0244318960038986 1 0 0.112199737628207 0.224399475256414 0.336599212884621 0.448798950512828 0.560998688141034 0.673198425769241 0.785398163397448 0.897597901025655 1.00979763865386 1.12199737628207 1.23419711391028 1.34639685153848 1.45859658916669 1.5707963267949 1.6829960644231 1.79519580205131 1.90739553967952 2.01959527730772 2.13179501493593 2.24399475256414 2.35619449019234 2.46839422782055 2.58059396544876 2.69279370307697 2.80499344070517 2.91719317833338 3.02939291596159 3.14159265358979 3.253792391218 3.36599212884621 3.47819186647441 3.59039160410262 3.70259134173083 3.81479107935903 3.92699081698724 4.03919055461545 4.15139029224366 4.26359002987186 4.37578976750007 4.48798950512828 4.60018924275648 4.71238898038469 4.8245887180129 4.9367884556411 5.04898819326931 5.16118793089752 5.27338766852572 5.38558740615393 5.49778714378214 5.60998688141034 5.72218661903855 5.83438635666676 5.94658609429497 6.05878583192317 6.17098556955138 6.28318530717959 
57 1 2 3 4 5 6 7 8 9 10 11 12 13 14 15 16 17 18 19 20 21 22 23 24 25 26 27 28 29 30 31 32 33 34 35 36 37 38 39 40 41 42 43 44 45 46 47 48 49 50 51 52 53 54 55 56 1 
p 0.0244318960038986 1 0 0.112199737628207 0.224399475256414 0.336599212884621 0.448798950512828 0.560998688141034 0.673198425769241 0.785398163397448 0.897597901025655 1.00979763865386 1.12199737628207 1.23419711391028 1.34639685153848 1.45859658916669 1.5707963267949 1.6829960644231 1.79519580205131 1.90739553967952 2.01959527730772 2.13179501493593 2.24399475256414 2.35619449019234 2.46839422782055 2.58059396544876 2.69279370307697 2.80499344070517 2.91719317833338 3.02939291596159 3.14159265358979 3.253792391218 3.36599212884621 3.47819186647441 3.59039160410262 3.70259134173083 3.81479107935903 3.92699081698724 4.03919055461545 4.15139029224366 4.26359002987186 4.37578976750007 4.48798950512828 4.60018924275648 4.71238898038469 4.8245887180129 4.9367884556411 5.04898819326931 5.16118793089752 5.27338766852572 5.38558740615393 5.49778714378214 5.60998688141034 5.72218661903855 5.83438635666676 5.94658609429497 6.05878583192317 6.17098556955138 6.28318530717959 
Surfaces 3
2 0 0 0 0 0 1 1 0 -0 -0 1 0 2
1 0 0 6 0 0 1 1 0 -0 -0 1 0 
1 0 0 0 0 0 1 1 0 -0 -0 1 0 
Triangulations 3
114 112 1 0.00314636996436701
2 -4.89858719658941e-16 6 2 -4.89858719658941e-16 6 1.98742441978649 0.223928952206616 6 1.94985582436365 0.445041867912629 6 1.88776666061674 0.660558123910334 6 1.80193773580484 0.867767478235116 6 1.69344839845657 1.06406415303067 6 1.56366296493606 1.24697960371747 6 1.4142135623731 1.41421356237309 6 1.24697960371747 1.56366296493606 6 1.06406415303067 1.69344839845657 6 0.867767478235116 1.80193773580484 6 0.660558123910334 1.88776666061674 6 0.445041867912629 1.94985582436365 6 0.223928952206616 1.98742441978649 6 1.22464679914735e-16 2 6 -0.223928952206616 1.98742441978649 6 -0.445041867912629 1.94985582436365 6 -0.660558123910334 1.88776666061674 6 -0.867767478235116 1.80193773580484 6 -1.06406415303067 1.69344839845657 6 -1.24697960371747 1.56366296493606 6 -1.41421356237309 1.4142135623731 6 -1.56366296493606 1.24697960371747 6 -1.69344839845657 1.06406415303067 6 -1.80193773580484 0.867767478235116 6 -1.88776666061674 0.660558123910334 6 -1.94985582436365 0.445041867912629 6 -1.98742441978649 0.223928952206616 6 -2 2.44929359829471e-16 6 -1.98742441978649 -0.223928952206615 6 -1.94985582436365 -0.445041867912629 6 -1.88776666061674 -0.660558123910334 6 -1.80193773580484 -0.867767478235116 6 -1.69344839845657 -1.06406415303067 6 -1.56366296493606 -1.24697960371747 6 -1.4142135623731 -1.41421356237309 6 -1.24697960371747 -1.56366296493606 6 -1.06406415303067 -1.69344839845657 6 -0.867767478235117 -1.80193773580484 6 -0.660558123910335 -1.88776666061673 6 -0.445041867912629 -1.94985582436365 6 -0.223928952206616 -1.98742441978649 6 -3.67394039744206e-16 -2 6 0.223928952206615 -1.98742441978649 6 0.445041867912628 -1.94985582436365 6 0.660558123910334 -1.88776666061674 6 0.867767478235116 -1.80193773580484 6 1.06406415303067 -1.69344839845657 6 1.24697960371747 -1.56366296493606 6 1.41421356237309 -1.4142135623731 6 1.56366296493606 -1.24697960371747 6 1.69344839845657 -1.06406415303067 6 1.80193773580484 -0.867767478235117 6 1.88776666061673 -0.660558123910335 6 1.94985582436365 -0.445041867912629 6 1.98742441978649 -0.223928952206616 6 2 -4.89858719658941e-16 0 2 -4.89858719658941e-16 0 1.98742441978649 0.223928952206616 0 1.94985582436365 0.445041867912629 0 1.88776666061674 0.660558123910334 0 1.80193773580484 0.867767478235116 0 1.69344839845657 1.06406415303067 0 1.56366296493606 1.24697960371747 0 1.4142135623731 1.41421356237309 0 1.24697960371747 1.56366296493606 0 1.06406415303067 1.69344839845657 0 0.867767478235116 1.80193773580484 0 0.660558123910334 1.88776666061674 0 0.445041867912629 1.94985582436365 0 0.223928952206616 1.98742441978649 0 1.22464679914735e-16 2 0 -0.223928952206616 1.98742441978649 0 -0.445041867912629 1.94985582436365 0 -0.660558123910334 1.88776666061674 0 -0.867767478235116 1.80193773580484 0 -1.06406415303067 1.69344839845657 0 -1.24697960371747 1.56366296493606 0 -1.41421356237309 1.4142135623731 0 -1.56366296493606 1.24697960371747 0 -1.69344839845657 1.06406415303067 0 -1.80193773580484 0.867767478235116 0 -1.88776666061674 0.660558123910334 0 -1.94985582436365 0.445041867912629 0 -1.98742441978649 0.223928952206616 0 -2 2.44929359829471e-16 0 -1.98742441978649 -0.223928952206615 0 -1.94985582436365 -0.445041867912629 0 -1.88776666061674 -0.660558123910334 0 -1.80193773580484 -0.867767478235116 0 -1.69344839845657 -1.06406415303067 0 -1.56366296493606 -1.24697960371747 0 -1.4142135623731 -1.41421356237309 0 -1.24697960371747 -1.56366296493606 0 -1.06406415303067 -1.69344839845657 0 -0.867767478235117 -1.80193773580484 0 -0.660558123910335 -1.88776666061673 0 -0.445041867912629 -1.94985582436365 0 -0.223928952206616 -1.98742441978649 0 -3.67394039744206e-16 -2 0 0.223928952206615 -1.98742441978649 0 0.445041867912628 -1.94985582436365 0 0.660558123910334 -1.88776666061674 0 0.867767478235116 -1.80193773580484 0 1.06406415303067 -1.69344839845657 0 1.24697960371747 -1.56366296493606 0 1.41421356237309 -1.4142135623731 0 1.56366296493606 -1.24697960371747 0 1.69344839845657 -1.06406415303067 0 1.80193773580484 -0.867767478235117 0 1.88776666061673 -0.660558123910335 0 1.94985582436365 -0.445041867912629 0 1.98742441978649 -0.223928952206616 0 0 6 6.28318530717959 6 0.112199737628207 6 0.224399475256414 6 0.336599212884621 6 0.448798950512828 6 0.560998688141034 6 0.673198425769241 6 0.785398163397448 6 0.897597901025655 6 1.00979763865386 6 1.12199737628207 6 1.23419711391028 6 1.34639685153848 6 1.45859658916669 6 1.5707963267949 6 1.6829960644231 6 1.79519580205131 6 1.90739553967952 6 2.01959527730772 6 2.13179501493593 6 2.24399475256414 6 2.35619449019234 6 2.46839422782055 6 2.58059396544876 6 2.69279370307697 6 2.80499344070517 6 2.91719317833338 6 3.02939291596159 6 3.14159265358979 6 3.253792391218 6 3.36599212884621 6 3.47819186647441 6 3.59039160410262 6 3.70259134173083 6 3.81479107935903 6 3.92699081698724 6 4.03919055461545 6 4.15139029224366 6 4.26359002987186 6 4.37578976750007 6 4.48798950512828 6 4.60018924275648 6 4.71238898038469 6 4.8245887180129 6 4.9367884556411 6 5.04898819326931 6 5.16118793089752 6 5.27338766852572 6 5.38558740615393 6 5.49778714378214 6 5.60998688141034 6 5.72218661903855 6 5.83438635666676 6 5.94658609429497 6 6.05878583192317 6 6.17098556955138 6 6.28318530717959 0 0 0 0.112199737628207 0 0.224399475256414 0 0.336599212884621 0 0.448798950512828 0 0.560998688141034 0 0.673198425769241 0 0.785398163397448 0 0.897597901025655 0 1.00979763865386 0 1.12199737628207 0 1.23419711391028 0 1.34639685153848 0 1.45859658916669 0 1.5707963267949 0 1.6829960644231 0 1.79519580205131 0 1.90739553967952 0 2.01959527730772 0 2.13179501493593 0 2.24399475256414 0 2.35619449019234 0 2.46839422782055 0 2.58059396544876 0 2.69279370307697 0 2.80499344070517 0 2.91719317833338 0 3.02939291596159 0 3.14159265358979 0 3.253792391218 0 3.36599212884621 0 3.47819186647441 0 3.59039160410262 0 3.70259134173083 0 3.81479107935903 0 3.92699081698724 0 4.03919055461545 0 4.15139029224366 0 4.26359002987186 0 4.37578976750007 0 4.48798950512828 0 4.60018924275648 0 4.71238898038469 0 4.8245887180129 0 4.9367884556411 0 5.04898819326931 0 5.16118793089752 0 5.27338766852572 0 5.38558740615393 0 5.49778714378214 0 5.60998688141034 0 5.72218661903855 0 5.83438635666676 0 5.94658609429497 0 6.05878583192317 0 6.17098556955138 0 3 1 59 3 59 60 4 3 60 4 60 61 5 4 61 5 61 62 6 5 62 6 62 63 7 6 63 7 63 64 8 7 64 8 64 65 9 8 65 9 65 66 10 9 66 10 66 67 11 10 67 11 67 68 12 11 68 12 68 69 13 12 69 13 69 70 14 13 70 14 70 71 15 14 71 15 71 72 16 72 73 16 15 72 17 73 74 17 16 73 18 74 75 18 17 74 19 75 76 19 18 75 20 76 77 20 19 76 21 77 78 21 20 77 22 78 79 22 21 78 23 22 79 23 79 80 24 23 80 24 80 81 25 24 81 25 81 82 26 25 82 26 82 83 27 26 83 27 83 84 28 27 84 28 84 85 29 28 85 29 85 86 30 29 86 30 86 87 31 30 87 31 87 88 32 31 88 32 88 89 33 32 89 33 89 90 34 33 90 34 90 91 35 34 91 35 91 92 36 35 92 36 92 93 37 36 93 37 93 94 38 37 94 38 94 95 39 38 95 39 95 96 40 39 96 40 96 97 41 40 97 41 97 98 42 41 98 42 98 99 43 42 99 43 99 100 44 43 100 44 100 101 45 44 101 45 101 102 46 102 103 46 45 102 47 103 104 47 46 103 48 47 104 48 104 105 49 105 106 49 48 105 50 106 107 50 49 106 51 107 108 51 50 107 52 108 109 52 51 108 53 109 110 53 52 109 54 110 111 54 53 110 55 111 112 55 54 111 56 112 113 56 55 112 57 113 114 57 56 113 2 114 58 2 57 114 
56 54 1 2.22044604925031e-16
2 -4.89858719658941e-16 6 1.98742441978649 0.223928952206616 6 1.94985582436365 0.445041867912629 6 1.88776666061674 0.660558123910334 6 1.80193773580484 0.867767478235116 6 1.69344839845657 1.06406415303067 6 1.56366296493606 1.24697960371747 6 1.4142135623731 1.41421356237309 6 1.24697960371747 1.56366296493606 6 1.06406415303067 1.69344839845657 6 0.867767478235116 1.80193773580484 6 0.660558123910334 1.88776666061674 6 0.445041867912629 1.94985582436365 6 0.223928952206616 1.98742441978649 6 1.22464679914735e-16 2 6 -0.223928952206616 1.98742441978649 6 -0.445041867912629 1.94985582436365 6 -0.660558123910334 1.88776666061674 6 -0.867767478235116 1.80193773580484 6 -1.06406415303067 1.69344839845657 6 -1.24697960371747 1.56366296493606 6 -1.41421356237309 1.4142135623731 6 -1.56366296493606 1.24697960371747 6 -1.69344839845657 1.06406415303067 6 -1.80193773580484 0.867767478235116 6 -1.88776666061674 0.660558123910334 6 -1.94985582436365 0.445041867912629 6 -1.98742441978649 0.223928952206616 6 -2 2.44929359829471e-16 6 -1.98742441978649 -0.223928952206615 6 -1.94985582436365 -0.445041867912629 6 -1.88776666061674 -0.660558123910334 6 -1.80193773580484 -0.867767478235116 6 -1.69344839845657 -1.06406415303067 6 -1.56366296493606 -1.24697960371747 6 -1.4142135623731 -1.41421356237309 6 -1.24697960371747 -1.56366296493606 6 -1.06406415303067 -1.69344839845657 6 -0.867767478235117 -1.80193773580484 6 -0.660558123910335 -1.88776666061673 6 -0.445041867912629 -1.94985582436365 6 -0.223928952206616 -1.98742441978649 6 -3.67394039744206e-16 -2 6 0.223928952206615 -1.98742441978649 6 0.445041867912628 -1.94985582436365 6 0.660558123910334 -1.88776666061674 6 0.867767478235116 -1.80193773580484 6 1.06406415303067 -1.69344839845657 6 1.24697960371747 -1.56366296493606 6 1.41421356237309 -1.4142135623731 6 1.56366296493606 -1.24697960371747 6 1.69344839845657 -1.06406415303067 6 1.80193773580484 -0.867767478235117 6 1.88776666061673 -0.660558123910335 6 1.94985582436365 -0.445041867912629 6 1.98742441978649 -0.223928952206616 6 2 0 1.98742441978649 0.223928952206616 1.94985582436365 0.445041867912629 1.88776666061674 0.660558123910334 1.80193773580484 0.867767478235116 1.69344839845657 1.06406415303067 1.56366296493606 1.24697960371747 1.41421356237309 1.41421356237309 1.24697960371747 1.56366296493606 1.06406415303067 1.69344839845657 0.867767478235116 1.80193773580484 0.660558123910334 1.88776666061674 0.445041867912629 1.94985582436365 0.223928952206616 1.98742441978649 0 2 -0.223928952206616 1.98742441978649 -0.445041867912629 1.94985582436365 -0.660558123910334 1.88776666061674 -0.867767478235116 1.80193773580484 -1.06406415303067 1.69344839845657 -1.24697960371747 1.56366296493606 -1.41421356237309 1.41421356237309 -1.56366296493606 1.24697960371747 -1.69344839845657 1.06406415303067 -1.80193773580484 0.867767478235117 -1.88776666061674 0.660558123910334 -1.94985582436365 0.445041867912629 -1.98742441978649 0.223928952206616 -2 4.44089209850063e-16 -1.98742441978649 -0.223928952206615 -1.94985582436365 -0.445041867912629 -1.88776666061674 -0.660558123910334 -1.80193773580484 -0.867767478235116 -1.69344839845657 -1.06406415303067 -1.56366296493606 -1.24697960371747 -1.4142135623731 -1.41421356237309 -1.24697960371747 -1.56366296493606 -1.06406415303067 -1.69344839845657 -0.867767478235117 -1.80193773580484 -0.660558123910334 -1.88776666061673 -0.445041867912629 -1.94985582436365 -0.223928952206616 -1.98742441978649 -4.44089209850063e-16 -2 0.223928952206615 -1.98742441978649 0.445041867912629 -1.94985582436365 0.660558123910334 -1.88776666061674 0.867767478235116 -1.80193773580484 1.06406415303067 -1.69344839845657 1.24697960371747 -1.56366296493606 1.41421356237309 -1.4142135623731 1.56366296493606 -1.24697960371747 1.69344839845657 -1.06406415303067 1.80193773580484 -0.867767478235117 1.88776666061673 -0.660558123910335 1.94985582436365 -0.445041867912629 1.98742441978649 -0.223928952206616 8 12 13 8 13 14 8 14 15 8 15 16 8 16 17 8 17 18 8 18 19 8 19 20 8 20 21 8 21 22 8 22 23 8 23 24 8 24 25 8 25 26 8 26 27 8 27 28 8 28 29 8 29 30 8 30 31 8 31 32 8 32 33 8 33 34 8 34 35 8 35 36 8 36 37 8 37 38 8 38 39 8 39 40 8 40 41 8 41 42 8 42 43 8 43 44 8 44 45 8 45 46 8 46 47 8 47 48 8 48 49 8 49 50 8 50 51 8 51 52 8 52 53 8 53 54 8 54 55 8 55 56 8 56 1 8 1 2 8 2 3 8 3 4 8 4 5 8 5 6 8 6 7 8 9 10 8 10 11 8 11 12 
56 54 1 2.22044604925031e-16
2 -4.89858719658941e-16 0 1.98742441978649 0.223928952206616 0 1.94985582436365 0.445041867912629 0 1.88776666061674 0.660558123910334 0 1.80193773580484 0.867767478235116 0 1.69344839845657 1.06406415303067 0 1.56366296493606 1.24697960371747 0 1.4142135623731 1.41421356237309 0 1.24697960371747 1.56366296493606 0 1.06406415303067 1.69344839845657 0 0.867767478235116 1.80193773580484 0 0.660558123910334 1.88776666061674 0 0.445041867912629 1.94985582436365 0 0.223928952206616 1.98742441978649 0 1.22464679914735e-16 2 0 -0.223928952206616 1.98742441978649 0 -0.445041867912629 1.94985582436365 0 -0.660558123910334 1.88776666061674 0 -0.867767478235116 1.80193773580484 0 -1.06406415303067 1.69344839845657 0 -1.24697960371747 1.56366296493606 0 -1.41421356237309 1.4142135623731 0 -1.56366296493606 1.24697960371747 0 -1.69344839845657 1.06406415303067 0 -1.80193773580484 0.867767478235116 0 -1.88776666061674 0.660558123910334 0 -1.94985582436365 0.445041867912629 0 -1.98742441978649 0.223928952206616 0 -2 2.44929359829471e-16 0 -1.98742441978649 -0.223928952206615 0 -1.94985582436365 -0.445041867912629 0 -1.88776666061674 -0.660558123910334 0 -1.80193773580484 -0.867767478235116 0 -1.69344839845657 -1.06406415303067 0 -1.56366296493606 -1.24697960371747 0 -1.4142135623731 -1.41421356237309 0 -1.24697960371747 -1.56366296493606 0 -1.06406415303067 -1.69344839845657 0 -0.867767478235117 -1.80193773580484 0 -0.660558123910335 -1.88776666061673 0 -0.445041867912629 -1.94985582436365 0 -0.223928952206616 -1.98742441978649 0 -3.67394039744206e-16 -2 0 0.223928952206615 -1.98742441978649 0 0.445041867912628 -1.94985582436365 0 0.660558123910334 -1.88776666061674 0 0.867767478235116 -1.80193773580484 0 1.06406415303067 -1.69344839845657 0 1.24697960371747 -1.56366296493606 0 1.41421356237309 -1.4142135623731 0 1.56366296493606 -1.24697960371747 0 1.69344839845657 -1.06406415303067 0 1.80193773580484 -0.867767478235117 0 1.88776666061673 -0.660558123910335 0 1.94985582436365 -0.445041867912629 0 1.98742441978649 -0.223928952206616 0 2 -4.44089209850063e-16 1.98742441978649 0.223928952206616 1.94985582436365 0.445041867912629 1.88776666061674 0.660558123910334 1.80193773580484 0.867767478235116 1.69344839845657 1.06406415303067 1.56366296493606 1.24697960371747 1.41421356237309 1.41421356237309 1.24697960371747 1.56366296493606 1.06406415303067 1.69344839845657 0.867767478235116 1.80193773580484 0.660558123910334 1.88776666061674 0.445041867912629 1.94985582436365 0.223928952206616 1.98742441978649 0 2 -0.223928952206616 1.98742441978649 -0.445041867912629 1.94985582436365 -0.660558123910334 1.88776666061674 -0.867767478235116 1.80193773580484 -1.06406415303067 1.69344839845657 -1.24697960371747 1.56366296493606 -1.41421356237309 1.41421356237309 -1.56366296493606 1.24697960371747 -1.69344839845657 1.06406415303067 -1.80193773580484 0.867767478235117 -1.88776666061674 0.660558123910334 -1.94985582436365 0.445041867912629 -1.98742441978649 0.223928952206616 -2 4.44089209850063e-16 -1.98742441978649 -0.223928952206615 -1.94985582436365 -0.445041867912629 -1.88776666061674 -0.660558123910334 -1.80193773580484 -0.867767478235116 -1.69344839845657 -1.06406415303067 -1.56366296493606 -1.24697960371747 -1.4142135623731 -1.41421356237309 -1.24697960371747 -1.56366296493606 -1.06406415303067 -1.69344839845657 -0.867767478235117 -1.80193773580484 -0.660558123910334 -1.88776666061673 -0.445041867912629 -1.94985582436365 -0.223928952206616 -1.98742441978649 -4.44089209850063e-16 -2 0.223928952206615 -1.98742441978649 0.445041867912629 -1.94985582436365 0.660558123910334 -1.88776666061674 0.867767478235116 -1.80193773580484 1.06406415303067 -1.69344839845657 1.24697960371747 -1.56366296493606 1.41421356237309 -1.4142135623731 1.56366296493606 -1.24697960371747 1.69344839845657 -1.06406415303067 1.80193773580484 -0.867767478235117 1.88776666061673 -0.660558123910335 1.94985582436365 -0.445041867912629 1.98742441978649 -0.223928952206616 8 12 13 8 13 14 8 14 15 8 15 16 8 16 17 8 17 18 8 18 19 8 19 20 8 20 21 8 21 22 8 22 23 8 23 24 8 24 25 8 25 26 8 26 27 8 27 28 8 28 29 8 29 30 8 30 31 8 31 32 8 32 33 8 33 34 8 34 35 8 35 36 8 36 37 8 37 38 8 38 39 8 39 40 8 40 41 8 41 42 8 42 43 8 43 44 8 44 45 8 45 46 8 46 47 8 47 48 8 48 49 8 49 50 8 50 51 8 51 52 8 52 53 8 53 54 8 54 55 8 55 56 8 56 1 8 1 2 8 2 3 8 3 4 8 4 5 8 5 6 8 6 7 8 9 10 8 10 11 8 11 12 

TShapes 14
Ve
1e-07
2 -4.89858719658941e-16 6
0 0

0101101
*
Ed
 1e-07 1 1 0
1  1 0 0 6.28318530717959
2  1 1 0 0 6.28318530717959
2  2 2 0 0 6.28318530717959
6  1 1 0
6  2 2 0
0

0101000
+14 0 -14 0 *
Ve
1e-07
2 -4.89858719658941e-16 0
0 0

0101101
*
Ed
 1e-07 1 1 0
1  2 0 0 6
3  3 4CN 1 0 0 6
7  3 4 1 0
0

0101000
-14 0 +12 0 *
Ed
 1e-07 1 1 0
1  3 0 0 6.28318530717959
2  5 1 0 0 6.28318530717959
2  6 3 0 0 6.28318530717959
6  5 1 0
6  6 3 0
0

0101000
+12 0 -12 0 *
Wi

0101100
-13 0 +11 0 +10 0 -11 0 *
Fa
0  1e-07 1 0
2  1
0101000
+9 0 *
Wi

0101100
+13 0 *
Fa
0  1e-07 2 0
2  2
0101000
+7 0 *
Wi

0101100
-10 0 *
Fa
0  1e-07 3 0
2  3
0101000
-5 0 *
Sh

0101100
+8 0 +6 0 -4 0 *
So

0100000
+3 0 *
Co

1100000
+2 1 *

+1 0 